<svg width="74" height="74" viewBox="0 0 74 74" fill="none" xmlns="http://www.w3.org/2000/svg">
<path fill-rule="evenodd" clip-rule="evenodd" d="M25.7883 10.177C25.9553 10.0523 26.2057 9.96927 26.4144 10.0108L34.1782 10.4262C34.387 10.4262 34.5957 10.5093 34.7626 10.6754L43.6534 18.4015C43.9039 18.6092 44.0291 18.8999 43.9874 19.2322L43.3195 27.3321C43.3195 27.5398 43.236 27.706 43.1108 27.8306L38.6445 33.5628L42.1925 33.1474L51.9599 31.9428L59.7237 28.8275C60.4333 28.5367 61.1846 29.1598 61.0594 29.9075L60.3081 34.6013L63.4804 45.235C63.5221 45.4011 63.5221 45.5673 63.4804 45.6919L61.1846 57.2395C61.1429 57.5302 60.9342 57.7795 60.6837 57.9041L54.7565 60.8948C54.673 60.9363 54.5478 60.9779 54.4226 60.9779L33.2182 63.5117C33.093 63.5117 32.9678 63.5117 32.8425 63.5117L19.9029 60.2302C19.7359 60.1887 19.5689 60.1056 19.4437 59.981L10.3024 51.0918C10.052 50.8426 9.96851 50.5518 10.0102 50.2195L11.7634 41.0812C11.8051 40.7904 12.0138 40.4997 12.306 40.375L22.1569 35.8474L19.0263 32.5659H12.6817C11.8469 32.5659 11.3877 31.6105 11.9303 30.9875L15.3948 26.7091L10.4694 19.9799C9.88503 19.1907 10.6781 18.1522 11.5547 18.4845L15.7288 19.8553L16.6888 20.1461L17.941 15.9507C18.0245 15.743 18.1497 15.5769 18.3167 15.4523L25.7883 10.177ZM15.3113 21.2261L16.6471 21.683C16.6888 21.683 16.7723 21.683 16.814 21.683L22.4908 25.5045L14.8939 29.5752L16.7305 27.3321C17.0227 26.9998 17.0227 26.5014 16.7305 26.1275L12.5147 20.3953L15.3113 21.2261ZM14.9357 31.1952H18.9846L21.5307 27.6644L14.9357 31.1952ZM23.743 35.4736L30.5885 39.3781L23.743 26.9168L20.2368 31.7767M31.5068 41.5381L23.3673 36.8859L14.2261 41.0812L27.5832 47.2288L31.5068 41.4966V41.5381ZM25.3292 47.7688L13.0573 42.1196L11.5964 49.6796L25.3292 47.7688ZM12.2225 51.0088L19.8611 58.5271L26.331 49.0565L12.2225 51.0088ZM21.1551 59.1917L28.0841 49.0565L38.0602 53.6672L32.7173 62.1409L21.1551 59.2333V59.1917ZM34.4287 62.0163L51.7929 59.9394L39.3541 54.2072L34.4287 62.0163ZM40.1055 53.0441L54.3391 59.6071L58.9724 57.281L43.1525 48.2673L40.1055 53.0857V53.0441ZM45.2396 47.7688L59.9741 56.201L61.936 46.315L45.2396 47.7688ZM61.8942 44.9027L58.9306 34.9336C58.9306 34.809 58.8889 34.6428 58.9306 34.5182L59.5985 30.489L52.6695 33.2721L44.3213 46.4396L61.8942 44.9027ZM50.7494 33.5628L42.6934 46.315L33.5104 41.0812L37.601 35.1413C37.6427 35.1413 37.7262 35.1413 37.8097 35.1413L42.4012 34.6013L50.7911 33.5628H50.7494ZM32.5504 40.0012L25.1205 26.4598L41.0655 27.9552M42.0255 25.7952L42.5682 19.3568L34.3452 12.2123L31.966 15.5354L42.0255 25.7952ZM30.9642 14.4969L32.926 11.7969L28.0423 11.5062L30.9642 14.4969ZM26.164 11.6308L30.1294 15.66L23.7013 24.6322L17.9828 20.7691L19.2767 16.4907L26.2057 11.6308H26.164ZM25.1622 25.006L31.1312 16.6984L40.7316 26.5014L25.1622 25.006ZM32.7173 42.2443L41.9421 47.5196L38.8115 52.4626L28.8772 47.8934L32.7173 42.2858V42.2443Z" fill="white"/>
</svg>
